<svg width="17" height="17" viewBox="0 0 17 17" fill="none" xmlns="http://www.w3.org/2000/svg">
<path d="M11.396 3.00652L13.1602 4.77069M12.5302 1.45236L7.75766 6.22486C7.51034 6.47056 7.34203 6.78453 7.27433 7.12652L6.8335 9.33319L9.04016 8.89152C9.38183 8.82319 9.69516 8.65569 9.94183 8.40902L14.7143 3.63652C14.8577 3.49311 14.9715 3.32285 15.0491 3.13547C15.1267 2.94809 15.1667 2.74726 15.1667 2.54444C15.1667 2.34162 15.1267 2.14079 15.0491 1.95341C14.9715 1.76603 14.8577 1.59577 14.7143 1.45236C14.5709 1.30894 14.4007 1.19518 14.2133 1.11756C14.0259 1.03995 13.8251 1 13.6222 1C13.4194 1 13.2186 1.03995 13.0312 1.11756C12.8438 1.19518 12.6736 1.30894 12.5302 1.45236Z" stroke="#2C93CB" stroke-width="2" stroke-linecap="round" stroke-linejoin="round"/>
<path d="M13.5 10.9998V13.4998C13.5 13.9419 13.3244 14.3658 13.0118 14.6783C12.6993 14.9909 12.2754 15.1665 11.8333 15.1665H2.66667C2.22464 15.1665 1.80072 14.9909 1.48816 14.6783C1.17559 14.3658 1 13.9419 1 13.4998V4.33317C1 3.89114 1.17559 3.46722 1.48816 3.15466C1.80072 2.8421 2.22464 2.6665 2.66667 2.6665H5.16667" stroke="#2C93CB" stroke-width="2" stroke-linecap="round" stroke-linejoin="round"/>
</svg>
