<svg width="21" height="21" viewBox="0 0 21 21" fill="none" xmlns="http://www.w3.org/2000/svg">
<path d="M8.65149 13.7747L8.64249 13.7537C8.50729 13.7168 8.37323 13.6758 8.24049 13.6307L8.23049 13.6267C6.84905 13.1541 5.64997 12.2613 4.80111 11.0734C3.95225 9.88545 3.49609 8.46181 3.49649 7.00175C3.49604 5.20986 4.18279 3.48602 5.41528 2.18531C6.64777 0.884601 8.33214 0.106065 10.1215 0.0100618C11.9108 -0.085941 13.6688 0.5079 15.0334 1.66927C16.398 2.83064 17.2652 4.4711 17.4565 6.25275C17.5005 6.66475 17.1605 7.00175 16.7465 7.00175C16.3325 7.00175 16.0015 6.66375 15.9465 6.25375C15.8135 5.28602 15.4252 4.37116 14.8215 3.60319C14.2178 2.83523 13.4205 2.24186 12.5116 1.88407C11.6027 1.52629 10.6148 1.41698 9.64966 1.5674C8.68448 1.71782 7.77676 2.12253 7.01979 2.73993C6.26282 3.35734 5.68391 4.16518 5.34255 5.08042C5.00119 5.99566 4.90969 6.98529 5.07747 7.94761C5.24524 8.90992 5.66623 9.8102 6.29717 10.5559C6.92811 11.3017 7.74625 11.8659 8.66749 12.1907C8.85307 11.7713 9.1772 11.4283 9.58555 11.2194C9.9939 11.0105 10.4617 10.9483 10.9104 11.0432C11.3592 11.1382 11.7617 11.3845 12.0504 11.7408C12.3392 12.0972 12.4967 12.5421 12.4965 13.0007C12.4965 13.5987 12.2345 14.1347 11.8195 14.5007C11.4543 14.8233 10.9838 15.0015 10.4965 15.0017C10.102 15.0032 9.71593 14.8873 9.38742 14.6688C9.05891 14.4503 8.80275 14.1391 8.65149 13.7747ZM6.49349 14.5017C5.75645 14.1079 5.08153 13.6075 4.49049 13.0167C3.94263 13.0805 3.43726 13.3432 3.07039 13.7551C2.70353 14.1669 2.50072 14.6992 2.50049 15.2507V15.8287C2.50049 16.7207 2.81849 17.5847 3.39849 18.2637C4.96449 20.0977 7.35049 21.0037 10.4965 21.0037C13.6425 21.0037 16.0295 20.0977 17.5985 18.2637C18.1799 17.5845 18.4994 16.7198 18.4995 15.8257V15.2507C18.4995 14.6544 18.2627 14.0824 17.8412 13.6605C17.4197 13.2386 16.8479 13.0013 16.2515 13.0007H13.9965C13.9965 13.5387 13.8765 14.0467 13.6595 14.5007H16.2515C16.4501 14.5013 16.6403 14.5805 16.7805 14.7211C16.9207 14.8617 16.9995 15.0522 16.9995 15.2507V15.8257C16.9996 16.3622 16.8081 16.8811 16.4595 17.2887C15.2025 18.7568 13.2355 19.5027 10.4965 19.5027C7.75749 19.5027 5.79249 18.7567 4.53949 17.2897C4.19106 16.8823 3.99957 16.3639 3.99949 15.8277V15.2507C3.99949 15.0518 4.07851 14.8611 4.21916 14.7204C4.35981 14.5798 4.55058 14.5007 4.74949 14.5007L6.49349 14.5017ZM6.49649 7.00175C6.49667 6.3118 6.67531 5.63363 7.01506 5.03312C7.3548 4.43262 7.8441 3.93021 8.43541 3.5747C9.02671 3.21919 9.69992 3.02267 10.3896 3.00424C11.0793 2.9858 11.7621 3.14608 12.3715 3.4695C12.981 3.79292 13.4964 4.26848 13.8677 4.84998C14.2391 5.43148 14.4537 6.09914 14.4907 6.7881C14.5278 7.47705 14.386 8.16387 14.0791 8.78183C13.7722 9.39978 13.3108 9.92786 12.7395 10.3147C12.1101 9.78942 11.3163 9.50169 10.4965 9.50175C11.1595 9.50175 11.7954 9.23836 12.2643 8.76952C12.7331 8.30067 12.9965 7.66479 12.9965 7.00175C12.9965 6.33871 12.7331 5.70282 12.2643 5.23398C11.7954 4.76514 11.1595 4.50175 10.4965 4.50175C9.83345 4.50175 9.19756 4.76514 8.72872 5.23398C8.25988 5.70282 7.99649 6.33871 7.99649 7.00175C7.99649 7.66479 8.25988 8.30067 8.72872 8.76952C9.19756 9.23836 9.83345 9.50175 10.4965 9.50175C9.64249 9.50175 8.86049 9.80775 8.25449 10.3147C7.71238 9.9489 7.26851 9.4554 6.96196 8.87768C6.6554 8.29997 6.49556 7.65576 6.49649 7.00175Z" fill="#1C71A6"/>
</svg>
